<svg width="51" height="51" viewBox="0 0 51 51" fill="none" xmlns="http://www.w3.org/2000/svg">
<path d="M49.3483 17.0361C48.1349 13.55 46.1756 10.3706 43.607 7.7195C41.0385 5.06844 37.9226 3.00957 34.4767 1.68646C31.0307 0.363342 27.3376 -0.192168 23.6548 0.0586693C19.9721 0.309507 16.3884 1.36065 13.1537 3.13881C9.91894 4.91696 7.11101 7.37931 4.92568 10.3542C2.74036 13.329 1.23026 16.7448 0.500677 20.3632C-0.228905 23.9816 -0.160403 27.7157 0.701406 31.3049C1.56321 34.8942 3.19758 38.2522 5.49054 41.1449C5.71833 41.4319 5.95524 41.7189 6.19681 41.9968C6.21506 42.015 6.22862 42.0333 6.24686 42.0515C6.84069 42.7357 7.47184 43.3867 8.13744 44.0013C8.31072 44.1608 8.49291 44.3248 8.67509 44.4797C9.02122 44.7895 9.37668 45.0856 9.74572 45.368C9.89143 45.4819 10.0327 45.5958 10.1831 45.7052C10.7661 46.1471 11.372 46.5571 11.9962 46.9489L12.0236 46.9625C12.2011 47.0719 12.3835 47.1812 12.5657 47.286C12.8936 47.4819 13.2308 47.6687 13.5678 47.8463L13.782 47.9557C14.2741 48.2108 14.7752 48.4523 15.29 48.6755C15.3948 48.7211 15.5086 48.7666 15.6134 48.8121C15.6225 48.8167 15.627 48.8167 15.6361 48.8213C15.8777 48.9215 16.119 49.0172 16.3651 49.1083C17.1732 49.4169 17.9975 49.6815 18.8342 49.9009C20.9699 50.4701 23.1707 50.7581 25.3809 50.7574C26.1872 50.7574 26.9845 50.721 27.7726 50.6435C29.5734 50.4773 31.3512 50.1184 33.0755 49.573C33.0799 49.573 33.0846 49.5684 33.0891 49.5684C34.1783 49.2214 35.2423 48.7997 36.2736 48.3065C36.2781 48.3019 36.2872 48.3019 36.2919 48.2974C36.5241 48.188 36.7474 48.0696 36.9752 47.9557C37.0117 47.9375 37.048 47.9192 37.0844 47.901C37.2666 47.8053 37.449 47.7097 37.6312 47.6095C38.0868 47.3589 38.5332 47.0947 38.975 46.8122C39.098 46.7393 39.2166 46.6618 39.3396 46.5798C39.5127 46.466 39.6857 46.3475 39.8543 46.2245C40.0775 46.0696 40.3008 45.9101 40.5195 45.7462C40.5877 45.696 40.6607 45.6459 40.729 45.5913C44.9971 42.3517 48.1299 37.8439 49.6783 32.7141C51.2267 27.5844 51.1112 22.0961 49.3484 17.0361H49.3483Z" fill="white"/>
<path d="M38.5333 44.5344C36.3749 43.397 34.122 42.4489 31.7998 41.7007L31.5037 38.4252L19.4949 37.1313L17.9687 41.3181L13.6591 42.9353C13.5048 42.9938 13.358 43.0702 13.2217 43.1631H13.2171C12.9765 43.3256 12.7717 43.5355 12.615 43.7799C12.4584 44.0243 12.3532 44.2981 12.3059 44.5845C12.2599 44.8693 12.2708 45.1604 12.3379 45.441L12.5657 46.3749C12.8936 46.5708 13.2308 46.7576 13.5678 46.9352L13.7821 47.0446C14.2741 47.2997 14.7753 47.5411 15.29 47.7644C15.3948 47.8099 15.5087 47.8555 15.6135 47.901C15.6226 47.9056 15.627 47.9056 15.6362 47.9101C15.8777 48.0104 16.1191 48.106 16.3651 48.1972C17.1732 48.5058 17.9975 48.7704 18.8343 48.9898C20.9699 49.559 23.1707 49.8469 25.3809 49.8463C26.1873 49.8463 26.9845 49.8099 27.7726 49.7324C29.5735 49.5662 31.3513 49.2073 33.0755 48.6618C33.08 48.6618 33.0847 48.6573 33.0891 48.6573C34.1783 48.3103 35.2424 47.8886 36.2737 47.3953C36.2781 47.3908 36.2872 47.3908 36.2919 47.3862C36.5241 47.2769 36.7475 47.1585 36.9753 47.0446C37.0117 47.0263 37.048 47.0081 37.0845 46.9899C37.2667 46.8942 37.4491 46.7985 37.6312 46.6983C38.0868 46.4477 38.5333 46.1835 38.975 45.9011C39.0981 45.8282 39.2166 45.7507 39.3396 45.6687C39.5127 45.5548 39.6858 45.4364 39.8544 45.3134C39.4306 45.0401 38.9888 44.7804 38.5333 44.5344Z" fill="#4B607C"/>
<path d="M25.0156 35.4016C23.6466 35.3995 22.296 35.0848 21.0671 34.4813C19.8383 33.8778 18.7635 33.0015 17.9249 31.9194C17.0862 30.8372 16.5059 29.5777 16.2282 28.2371C15.9505 26.8965 15.9828 25.5102 16.3225 24.1839C16.6622 22.8577 17.3004 21.6265 18.1885 20.5845C19.0765 19.5425 20.1908 18.7172 21.4465 18.1715C22.7021 17.6257 24.0658 17.3741 25.4335 17.4357C26.8011 17.4974 28.1367 17.8707 29.3381 18.5271V18.5271C31.0879 19.4872 32.4686 21.0021 33.2626 22.8333C34.0565 24.6645 34.2186 26.7078 33.7234 28.6412C33.2281 30.5747 32.1036 32.2884 30.527 33.5124C28.9505 34.7364 27.0115 35.401 25.0156 35.4016ZM25.0421 18.1011C23.0172 18.0985 21.061 18.8353 19.5411 20.1731C18.0211 21.511 17.0419 23.3579 16.7875 25.3667C16.5331 27.3756 17.021 29.4082 18.1595 31.0827C19.2979 32.7573 21.0087 33.9585 22.9703 34.4607C24.9319 34.9629 27.0094 34.7316 28.8126 33.8102C30.6157 32.8888 32.0203 31.3406 32.7625 29.4567C33.5048 27.5727 33.5336 25.4826 32.8435 23.5789C32.1535 21.6752 30.792 20.089 29.015 19.1182C27.7963 18.453 26.4305 18.1033 25.0421 18.1011H25.0421Z" fill="#E4E4E4"/>
<path d="M19.2214 22.1989C20.1167 23.2584 21.6319 23.5574 23.0295 23.68C25.8681 23.929 29.9956 23.5251 32.7696 22.8847C32.9676 24.8036 32.4278 26.8727 33.558 28.4512C34.0878 26.5402 34.3959 24.5745 34.4762 22.593C34.5606 21.7428 34.4496 20.8846 34.1517 20.0839C33.8063 19.3038 33.0532 18.6416 32.1859 18.6347C32.8302 18.1459 33.585 17.8232 34.3836 17.6951L31.6374 16.3151L32.3426 15.591L27.3707 15.2868L28.8108 14.372C26.6434 14.0742 24.4508 14.0049 22.2689 14.1655C21.2558 14.2401 20.1965 14.3827 19.3756 14.9697C18.5547 15.5567 18.0804 16.7235 18.59 17.5853C17.952 17.6901 17.3512 17.956 16.8448 18.3579C16.3383 18.7598 15.9428 19.2843 15.6957 19.8818C15.3833 20.8316 15.3079 21.8433 15.476 22.8288C15.6633 24.4101 16.0308 25.9647 16.5713 27.4625L19.2214 22.1989Z" fill="#4B607C"/>
<path d="M49.3483 17.0361C48.1349 13.55 46.1756 10.3706 43.607 7.7195C41.0385 5.06844 37.9226 3.00957 34.4767 1.68646C31.0307 0.363342 27.3376 -0.192168 23.6548 0.0586693C19.9721 0.309507 16.3884 1.36065 13.1537 3.13881C9.91894 4.91696 7.11101 7.37931 4.92568 10.3542C2.74036 13.329 1.23026 16.7448 0.500677 20.3632C-0.228905 23.9816 -0.160403 27.7157 0.701406 31.3049C1.56321 34.8942 3.19758 38.2522 5.49054 41.1449C5.71833 41.4319 5.95524 41.7189 6.19681 41.9968C6.21506 42.015 6.22862 42.0333 6.24686 42.0515C6.84069 42.7357 7.47184 43.3867 8.13744 44.0013C8.31072 44.1608 8.49291 44.3248 8.67509 44.4797C9.02122 44.7895 9.37668 45.0856 9.74572 45.368C9.89143 45.4819 10.0327 45.5958 10.1831 45.7052C10.7661 46.1471 11.372 46.5571 11.9962 46.9489L12.0236 46.9625C12.2011 47.0719 12.3835 47.1812 12.5657 47.286C12.8936 47.4819 13.2308 47.6687 13.5678 47.8463L13.782 47.9557C14.2741 48.2108 14.7752 48.4523 15.29 48.6755C15.3948 48.7211 15.5086 48.7666 15.6134 48.8121C15.6225 48.8167 15.627 48.8167 15.6361 48.8213C15.8777 48.9215 16.119 49.0172 16.3651 49.1083C17.1732 49.4169 17.9975 49.6815 18.8342 49.9009C20.9699 50.4701 23.1707 50.7581 25.3809 50.7574C26.1872 50.7574 26.9845 50.721 27.7726 50.6435C29.5734 50.4773 31.3512 50.1184 33.0755 49.573C33.0799 49.573 33.0846 49.5684 33.0891 49.5684C34.1783 49.2214 35.2423 48.7997 36.2736 48.3065C36.2781 48.3019 36.2872 48.3019 36.2919 48.2974C36.5241 48.188 36.7474 48.0696 36.9752 47.9557C37.0117 47.9375 37.048 47.9192 37.0844 47.901C37.2666 47.8053 37.449 47.7097 37.6312 47.6095C38.0868 47.3589 38.5332 47.0947 38.975 46.8122C39.098 46.7393 39.2166 46.6618 39.3396 46.5798C39.5127 46.466 39.6857 46.3475 39.8543 46.2245C40.0775 46.0696 40.3008 45.9101 40.5195 45.7462C40.5877 45.696 40.6607 45.6459 40.729 45.5913C44.9971 42.3517 48.1299 37.8439 49.6783 32.7141C51.2267 27.5844 51.1112 22.0961 49.3484 17.0361H49.3483ZM39.8908 44.4842C39.7404 44.6027 39.5856 44.7166 39.4306 44.8214C39.2802 44.9353 39.13 45.0446 38.975 45.1448C38.8429 45.2405 38.7107 45.3316 38.5741 45.4182C38.5606 45.4273 38.5468 45.4364 38.5332 45.4455C38.4329 45.5138 38.3328 45.5776 38.2325 45.6414C37.8543 45.8783 37.4716 46.1061 37.0844 46.3248C37.0435 46.3475 37.0023 46.3703 36.9614 46.3931C36.7883 46.4887 36.6153 46.5799 36.4422 46.671C36.4193 46.6846 36.3919 46.6938 36.3693 46.7074L36.3419 46.7211C36.1232 46.835 35.8999 46.9443 35.6768 47.0491C34.8153 47.4639 33.9282 47.823 33.0208 48.1242C32.9022 48.1652 32.7838 48.2062 32.6655 48.2427C31.0334 48.7618 29.3503 49.1039 27.6451 49.2632C26.8979 49.3315 26.1416 49.3679 25.3808 49.3679C23.2904 49.3723 21.2085 49.0996 19.1897 48.557C18.1536 48.2866 17.1382 47.9425 16.1511 47.5274C16.1008 47.5046 16.0461 47.4864 15.996 47.4637C15.9415 47.4409 15.8913 47.4226 15.8412 47.3999C15.7865 47.3771 15.7364 47.3543 15.6817 47.327C15.2535 47.1402 14.8297 46.9352 14.4153 46.7211L14.2149 46.6163C13.709 46.3521 13.2125 46.0696 12.7296 45.7689C12.5884 45.6823 12.4427 45.5913 12.3058 45.4956C12.2696 45.4728 12.2375 45.45 12.2011 45.4272C11.8776 45.2131 11.5542 44.9899 11.2399 44.7576C11.0259 44.5981 10.8117 44.4387 10.6021 44.2747C10.2513 44.0104 9.9141 43.728 9.58622 43.4364C9.41315 43.2906 9.24455 43.1312 9.0806 42.9808C8.43464 42.3844 7.82318 41.7517 7.2492 41.0857C7.05789 40.867 6.87104 40.6483 6.6933 40.4205C6.6529 40.3755 6.61488 40.3283 6.57941 40.2793C3.61942 36.5442 1.83902 32.012 1.46526 27.2609C1.09149 22.5097 2.14131 17.755 4.48081 13.6029C6.82032 9.45085 10.3435 6.08969 14.601 3.94809C18.8585 1.8065 23.6574 0.98152 28.3857 1.57837C33.114 2.17523 37.5574 4.16686 41.1492 7.29927C44.7409 10.4317 47.3183 14.5629 48.5527 19.1661C49.787 23.7693 49.6223 28.6358 48.0796 33.145C46.5369 37.6542 43.6861 41.6018 39.8908 44.4842L39.8908 44.4842Z" fill="#D2E4FF"/>
</svg>
