<svg width="22" height="22" viewBox="0 0 22 22" fill="none" xmlns="http://www.w3.org/2000/svg">
<path d="M12.6043 4.81254C13.6126 4.81254 14.4376 3.98754 14.4376 2.97921C14.4376 1.97087 13.6126 1.14587 12.6043 1.14587C11.596 1.14587 10.771 1.97087 10.771 2.97921C10.771 3.98754 11.596 4.81254 12.6043 4.81254ZM16.271 9.65254C15.1435 9.31337 14.236 8.58004 13.7043 7.65421L12.7876 6.18754C12.4118 5.59171 11.7701 5.27087 11.101 5.27087C10.386 5.27087 9.64348 5.72921 9.46931 6.59087C9.29514 7.45254 6.64598 20.8542 6.64598 20.8542H8.57098L10.221 13.5209L12.146 15.3542V20.8542H13.9793V13.9792L12.0543 12.1459L12.6043 9.39587C13.521 10.45 14.8135 11.2384 16.271 11.5409V20.8542H17.646V8.02087H16.271V9.65254ZM7.04014 11.8067L5.09681 11.4309C4.60181 11.33 4.27181 10.8534 4.37264 10.3584L5.06931 6.75587C5.26181 5.76587 6.22431 5.11504 7.21431 5.30754L8.27764 5.51837L7.04014 11.8067Z" fill="#A3BE8C"/>
</svg>
