<svg width="150" height="37" viewBox="0 0 150 37" fill="none" xmlns="http://www.w3.org/2000/svg">
<g clip-path="url(#clip0_394_4159)">
<path d="M17.1 28.175L4.2 12.125V27.875H3V11.675C3 10.7167 2.79583 9.975 2.3875 9.45C1.97917 8.93333 1.28333 8.675 0.3 8.675H0V8.075H1.95C2.86667 8.075 3.64583 8.225 4.2875 8.525C4.92917 8.825 5.5 9.275 6 9.875L16.5 22.925V8.075H17.7V28.175H17.1ZM25.775 28.175C25.1333 28.175 24.4833 28.0417 23.825 27.775C23.1583 27.5 22.5917 27.0542 22.125 26.4375C21.6583 25.8125 21.425 24.9917 21.425 23.975C21.425 22.4583 22.1292 21.3792 23.5375 20.7375C24.9458 20.0958 26.7917 19.775 29.075 19.775H29.975C29.975 17.8167 29.7042 16.475 29.1625 15.75C28.6208 15.0333 27.8417 14.675 26.825 14.675C25.925 14.675 25.2042 14.8667 24.6625 15.25C24.1208 15.625 23.7417 16.2833 23.525 17.225H22.175C22.175 16.5417 22.2125 16.0083 22.2875 15.625C22.3708 15.2333 22.5833 14.8667 22.925 14.525C23.2833 14.1667 23.875 13.9 24.7 13.725C25.5333 13.5583 26.4417 13.475 27.425 13.475C29.0417 13.475 30.3208 13.9083 31.2625 14.775C32.2042 15.65 32.675 17.3167 32.675 19.775V27.875H31.175L30.125 26.525H29.975C29.6083 26.9833 29.075 27.375 28.375 27.7C27.675 28.0167 26.8083 28.175 25.775 28.175ZM27.125 26.825C27.7833 26.825 28.3333 26.6667 28.775 26.35C29.2083 26.025 29.6083 25.5833 29.975 25.025V20.975H29.075C27.5917 20.975 26.4208 21.25 25.5625 21.8C24.7042 22.35 24.275 23.075 24.275 23.975C24.275 24.8917 24.55 25.5958 25.1 26.0875C25.65 26.5792 26.325 26.825 27.125 26.825ZM40.475 27.875V9.275H37.775C35.275 9.275 34.025 10.425 34.025 12.725H33.425V10.475C33.425 8.875 34.275 8.075 35.975 8.075H49.925V9.275H43.175V27.875H40.475ZM55.65 28.175C54.2917 28.175 53.1125 27.85 52.1125 27.2C51.1125 26.55 50.35 25.6667 49.825 24.55C49.3083 23.425 49.05 22.1833 49.05 20.825C49.05 19.4667 49.3083 18.225 49.825 17.1C50.35 15.9833 51.1125 15.1 52.1125 14.45C53.1125 13.8 54.2917 13.475 55.65 13.475C57.0083 13.475 58.1875 13.8 59.1875 14.45C60.1875 15.1 60.95 15.9833 61.475 17.1C61.9917 18.225 62.25 19.4667 62.25 20.825C62.25 22.1833 61.9917 23.425 61.475 24.55C60.95 25.6667 60.1875 26.55 59.1875 27.2C58.1875 27.85 57.0083 28.175 55.65 28.175ZM55.65 26.975C56.3917 26.975 57.0458 26.7042 57.6125 26.1625C58.1875 25.6208 58.6292 24.8833 58.9375 23.95C59.2458 23.0083 59.4 21.9667 59.4 20.825C59.4 19.6833 59.2458 18.6417 58.9375 17.7C58.6292 16.7667 58.1875 16.0292 57.6125 15.4875C57.0458 14.9458 56.3917 14.675 55.65 14.675C54.9083 14.675 54.2542 14.9458 53.6875 15.4875C53.1125 16.0292 52.6708 16.7667 52.3625 17.7C52.0542 18.6417 51.9 19.6833 51.9 20.825C51.9 21.9667 52.0542 23.0083 52.3625 23.95C52.6708 24.8833 53.1125 25.6208 53.6875 26.1625C54.2542 26.7042 54.9083 26.975 55.65 26.975ZM70.8875 28.175C69.3875 28.175 68.1625 27.775 67.2125 26.975C66.2625 26.175 65.7875 24.775 65.7875 22.775V17.375C65.7875 16.3583 65.65 15.6042 65.375 15.1125C65.0917 14.6208 64.5292 14.375 63.6875 14.375H63.3875V13.775H65.7875C66.5292 13.775 67.0833 13.8708 67.45 14.0625C67.825 14.2542 68.0917 14.6 68.25 15.1C68.4083 15.6 68.4875 16.3583 68.4875 17.375V22.775C68.4875 24.175 68.8042 25.2 69.4375 25.85C70.0625 26.5 70.8458 26.825 71.7875 26.825C72.8458 26.825 73.8458 26.2958 74.7875 25.2375V13.775H77.4875V27.875H75.9875L74.9375 26.675H74.7875C74.3708 27.0917 73.825 27.4458 73.15 27.7375C72.4833 28.0292 71.7292 28.175 70.8875 28.175ZM82.05 27.875V17.375C82.05 16.3583 81.9083 15.6042 81.625 15.1125C81.35 14.6208 80.7917 14.375 79.95 14.375H79.65V13.775H82.05C82.8083 13.775 83.3833 13.8792 83.775 14.0875C84.1667 14.2958 84.4417 14.6417 84.6 15.125H84.75C85.1083 14.6667 85.5917 14.275 86.2 13.95C86.8167 13.6333 87.5333 13.475 88.35 13.475C89.15 13.475 89.75 13.625 90.15 13.925C90.4917 14.1833 90.8417 14.6333 91.2 15.275L90 16.175C89.7833 15.875 89.4625 15.65 89.0375 15.5C88.6208 15.35 88.1417 15.275 87.6 15.275C87 15.275 86.45 15.4083 85.95 15.675C85.45 15.95 85.05 16.3167 84.75 16.775V27.875H82.05Z" fill="#4A6363"/>
<path d="M102.45 0.0249939V36.275" stroke="#4A6363" stroke-linecap="round"/>
<path d="M140.702 26.1808C146.311 20.5737 147.626 2.1286 147.626 2.1286C147.626 2.1286 143.818 4.11401 137.735 4.63601C131.998 5.12865 126.685 5.93775 123.572 9.0509C118.768 13.8566 117.565 20.6962 120.3 25.5298C123.31 20.8064 135.687 14.0668 135.687 14.0668C126.804 20.42 122.277 25.3467 116.182 34.0293L119.171 34.8294C119.171 34.8294 121.396 30.8111 123.33 28.8699C128.185 32.3143 135.59 31.2946 140.702 26.1808Z" fill="#006A6A"/>
</g>
<defs>
<clipPath id="clip0_394_4159">
<rect width="150" height="36.25" fill="white"/>
</clipPath>
</defs>
</svg>
