<svg width="20" height="21" viewBox="0 0 20 21" fill="none" xmlns="http://www.w3.org/2000/svg">
<path d="M19.2747 20.3965L1.04768 19.9838C-0.775489 12.9213 0.0453263 6.19671 1.50023 0L19.7272 0.412663C17.8836 6.92771 17.7279 13.8047 19.2747 20.3965V20.3965Z" fill="#006A6A"/>
<path d="M4.6228 4.4166L4.63291 3.72302L14.0757 4.06056L14.0659 4.75414L4.6228 4.4166Z" fill="white"/>
<path d="M4.58301 7.19054L4.59311 6.49695L14.0359 6.83481L14.0258 7.52841L4.58301 7.19054Z" fill="white"/>
<path d="M4.54321 9.96494L4.55332 9.27136L13.9961 9.60888L13.986 10.3025L4.54321 9.96494Z" fill="white"/>
<path d="M4.50354 12.7393L4.51331 12.0457L13.9564 12.3832L13.9463 13.0768L4.50354 12.7393Z" fill="white"/>
<path d="M4.46375 15.5133L4.47351 14.8197L13.9166 15.1576L13.9065 15.8508L4.46375 15.5133Z" fill="white"/>
</svg>
