<svg width="134" height="267" viewBox="0 0 134 267" fill="none" xmlns="http://www.w3.org/2000/svg">
<path d="M0 63.3946H1.46577V23.2403C1.46577 20.1883 2.0669 17.1662 3.23483 14.3466C4.40275 11.527 6.11461 8.96498 8.27266 6.80693C10.4307 4.64887 12.9927 2.937 15.8123 1.76907C18.632 0.601135 21.654 2.33828e-06 24.706 0H109.778C112.83 -6.23524e-06 115.852 0.601117 118.672 1.76904C121.492 2.93697 124.054 4.64883 126.212 6.80688C128.37 8.96493 130.082 11.5269 131.25 14.3465C132.418 17.1662 133.019 20.1882 133.019 23.2402V243.53C133.019 246.582 132.418 249.604 131.25 252.424C130.082 255.243 128.37 257.805 126.212 259.963C124.054 262.122 121.492 263.833 118.672 265.001C115.853 266.169 112.83 266.77 109.779 266.77H24.7061C18.5424 266.77 12.6312 264.322 8.27275 259.964C3.91435 255.605 1.46581 249.694 1.46579 243.53V91.9772H0V63.3946Z" fill="#3F3D56"/>
<path d="M23.7683 6.04631H34.8731C34.3624 7.29833 34.1674 8.65672 34.3054 10.0018C34.4434 11.3469 34.9101 12.6375 35.6643 13.7597C36.4185 14.882 37.4371 15.8016 38.6305 16.4374C39.8238 17.0733 41.1552 17.4059 42.5073 17.406H91.2443C92.5964 17.4059 93.9278 17.0733 95.1211 16.4374C96.3145 15.8016 97.3331 14.882 98.0873 13.7597C98.8416 12.6375 99.3082 11.3469 99.4462 10.0018C99.5842 8.65672 99.3892 7.29832 98.8785 6.0463H109.25C113.853 6.04629 118.268 7.87481 121.523 11.1296C124.777 14.3844 126.606 18.7988 126.606 23.4018V243.369C126.606 245.648 126.157 247.905 125.285 250.01C124.413 252.116 123.134 254.029 121.523 255.641C119.911 257.252 117.998 258.531 115.892 259.403C113.786 260.275 111.53 260.724 109.25 260.724H23.7683C21.4891 260.724 19.2323 260.275 17.1266 259.403C15.0209 258.531 13.1077 257.252 11.4961 255.641C9.88444 254.029 8.60603 252.116 7.73383 250.01C6.86163 247.905 6.41272 245.648 6.41272 243.369V243.369V23.4018C6.41272 21.1227 6.86163 18.8658 7.73383 16.7602C8.60603 14.6545 9.88444 12.7412 11.4961 11.1296C13.1077 9.51801 15.0209 8.23961 17.1266 7.36741C19.2323 6.49522 21.4891 6.04631 23.7683 6.04631Z" fill="white"/>
<path d="M84.8237 67.67H48.1949V76.5089H84.8237V67.67Z" fill="#006A6A"/>
<path d="M86.5676 105.65H46.4512V114.489H86.5676V105.65Z" fill="#E5E5E5"/>
<path d="M111.277 124.637H21.7413V133.476H111.277V124.637Z" fill="#E5E5E5"/>
<path d="M111.277 143.624H21.7413V152.463H111.277V143.624Z" fill="#E5E5E5"/>
<path d="M66.5547 228.742C80.7249 228.742 92.2122 217.255 92.2122 203.085C92.2122 188.915 80.7249 177.428 66.5547 177.428C52.3845 177.428 40.8972 188.915 40.8972 203.085C40.8972 217.255 52.3845 228.742 66.5547 228.742Z" fill="#006A6A"/>
<path d="M64.1095 213.916L56.4307 204.042L60.8962 200.568L64.5321 205.243L76.816 192.276L80.9237 196.168L64.1095 213.916Z" fill="white"/>
</svg>
